<svg width="34" height="34" viewBox="0 0 34 34" fill="none" xmlns="http://www.w3.org/2000/svg">
<g clip-path="url(#clip0_20_4)">
<circle cx="16.6667" cy="16.6667" r="16" fill="white"/>
<path d="M15 16.3333V21.6667C15 22.1389 15.16 22.535 15.48 22.855C15.8 23.175 16.1956 23.3344 16.6667 23.3333C17.1389 23.3333 17.535 23.1733 17.855 22.8533C18.175 22.5333 18.3344 22.1378 18.3333 21.6667V16.3333L19.8333 17.8333C20.1389 18.1389 20.5278 18.2917 21 18.2917C21.4722 18.2917 21.8611 18.1389 22.1667 17.8333C22.4722 17.5278 22.625 17.1389 22.625 16.6667C22.625 16.1944 22.4722 15.8056 22.1667 15.5L17.8333 11.1667C17.5 10.8333 17.1111 10.6667 16.6667 10.6667C16.2222 10.6667 15.8333 10.8333 15.5 11.1667L11.1667 15.5C10.8611 15.8056 10.7083 16.1944 10.7083 16.6667C10.7083 17.1389 10.8611 17.5278 11.1667 17.8333C11.4722 18.1389 11.8611 18.2917 12.3333 18.2917C12.8056 18.2917 13.1944 18.1389 13.5 17.8333L15 16.3333ZM16.6667 33.3333C14.3611 33.3333 12.1944 32.8956 10.1667 32.02C8.13889 31.1444 6.375 29.9572 4.875 28.4583C3.375 26.9583 2.18778 25.1944 1.31333 23.1667C0.438889 21.1389 0.00111111 18.9722 0 16.6667C0 14.3611 0.437778 12.1944 1.31333 10.1667C2.18889 8.13889 3.37611 6.375 4.875 4.875C6.375 3.375 8.13889 2.18778 10.1667 1.31333C12.1944 0.438889 14.3611 0.00111111 16.6667 0C18.9722 0 21.1389 0.437778 23.1667 1.31333C25.1944 2.18889 26.9583 3.37611 28.4583 4.875C29.9583 6.375 31.1461 8.13889 32.0217 10.1667C32.8972 12.1944 33.3344 14.3611 33.3333 16.6667C33.3333 18.9722 32.8956 21.1389 32.02 23.1667C31.1444 25.1944 29.9572 26.9583 28.4583 28.4583C26.9583 29.9583 25.1944 31.1461 23.1667 32.0217C21.1389 32.8972 18.9722 33.3344 16.6667 33.3333Z" fill="#9747FF"/>
</g>
<defs>
<clipPath id="clip0_20_4">
<rect width="33.3333" height="33.3333" rx="16.6667" fill="white"/>
</clipPath>
</defs>
</svg>
