<svg width="60" height="61" viewBox="0 0 60 61" fill="none" xmlns="http://www.w3.org/2000/svg">
<path d="M21.6 10.5H38.4C44.8 10.5 50 15.7 50 22.1V38.9C50 41.9765 48.7779 44.927 46.6024 47.1024C44.427 49.2779 41.4765 50.5 38.4 50.5H21.6C15.2 50.5 10 45.3 10 38.9V22.1C10 19.0235 11.2221 16.073 13.3976 13.8976C15.573 11.7221 18.5235 10.5 21.6 10.5ZM21.2 14.5C19.2904 14.5 17.4591 15.2586 16.1088 16.6088C14.7586 17.9591 14 19.7904 14 21.7V39.3C14 43.28 17.22 46.5 21.2 46.5H38.8C40.7096 46.5 42.5409 45.7414 43.8912 44.3912C45.2414 43.0409 46 41.2096 46 39.3V21.7C46 17.72 42.78 14.5 38.8 14.5H21.2ZM40.5 17.5C41.163 17.5 41.7989 17.7634 42.2678 18.2322C42.7366 18.7011 43 19.337 43 20C43 20.663 42.7366 21.2989 42.2678 21.7678C41.7989 22.2366 41.163 22.5 40.5 22.5C39.837 22.5 39.2011 22.2366 38.7322 21.7678C38.2634 21.2989 38 20.663 38 20C38 19.337 38.2634 18.7011 38.7322 18.2322C39.2011 17.7634 39.837 17.5 40.5 17.5ZM30 20.5C32.6522 20.5 35.1957 21.5536 37.0711 23.4289C38.9464 25.3043 40 27.8478 40 30.5C40 33.1522 38.9464 35.6957 37.0711 37.5711C35.1957 39.4464 32.6522 40.5 30 40.5C27.3478 40.5 24.8043 39.4464 22.9289 37.5711C21.0536 35.6957 20 33.1522 20 30.5C20 27.8478 21.0536 25.3043 22.9289 23.4289C24.8043 21.5536 27.3478 20.5 30 20.5ZM30 24.5C28.4087 24.5 26.8826 25.1321 25.7574 26.2574C24.6321 27.3826 24 28.9087 24 30.5C24 32.0913 24.6321 33.6174 25.7574 34.7426C26.8826 35.8679 28.4087 36.5 30 36.5C31.5913 36.5 33.1174 35.8679 34.2426 34.7426C35.3679 33.6174 36 32.0913 36 30.5C36 28.9087 35.3679 27.3826 34.2426 26.2574C33.1174 25.1321 31.5913 24.5 30 24.5Z" fill="#545454"/>
</svg>
