<svg width="60" height="61" viewBox="0 0 60 61" fill="none" xmlns="http://www.w3.org/2000/svg">
<path d="M45.5556 10.5C46.7343 10.5 47.8648 10.9683 48.6983 11.8017C49.5317 12.6352 50 13.7657 50 14.9444V46.0556C50 47.2343 49.5317 48.3648 48.6983 49.1983C47.8648 50.0317 46.7343 50.5 45.5556 50.5H14.4444C13.2657 50.5 12.1352 50.0317 11.3017 49.1983C10.4683 48.3648 10 47.2343 10 46.0556V14.9444C10 13.7657 10.4683 12.6352 11.3017 11.8017C12.1352 10.9683 13.2657 10.5 14.4444 10.5H45.5556ZM44.4444 44.9444V33.1667C44.4444 31.2453 43.6812 29.4027 42.3226 28.0441C40.964 26.6855 39.1213 25.9222 37.2 25.9222C35.3111 25.9222 33.1111 27.0778 32.0444 28.8111V26.3444H25.8444V44.9444H32.0444V33.9889C32.0444 32.2778 33.4222 30.8778 35.1333 30.8778C35.9585 30.8778 36.7498 31.2056 37.3332 31.789C37.9167 32.3724 38.2444 33.1638 38.2444 33.9889V44.9444H44.4444ZM18.6222 22.8556C19.6124 22.8556 20.562 22.4622 21.2621 21.7621C21.9622 21.062 22.3556 20.1124 22.3556 19.1222C22.3556 17.0556 20.6889 15.3667 18.6222 15.3667C17.6262 15.3667 16.6709 15.7623 15.9666 16.4666C15.2623 17.1709 14.8667 18.1262 14.8667 19.1222C14.8667 21.1889 16.5556 22.8556 18.6222 22.8556ZM21.7111 44.9444V26.3444H15.5556V44.9444H21.7111Z" fill="#545454"/>
</svg>
